Love for All and Sharing is the first step to solving all the problems of humanity.

Websites I want to share.

     
http://www.shareintl.org/

     
http://www.lightmiddleway.com


Thank you very much

No credit for me...credit to EVERYONE for sharing

 
http://thepiratebay.org/user/raymondhome/

STORY
Your mind is the scene of the crime

In a world where technology exists to enter the human mind through dream invasion, a highly skilled thief is given a final chance at redemption which involves executing his toughest job till date, Inception.

IMDb RATING: 9.3/10 (46,333 votes) Top 250: #3

Source : Our Own, (Thanks SLUGGER)
Complete name : Inception.2010.CAM.XviD-TA.avi
Format : AVI
Format/Info : Audio Video Interleave
File size : 1.41 GiB
Duration : 2h 10mn
Overall bit rate : 1 545 Kbps
Writing library : VirtualDub build 32661/release

Video
ID : 0
Format : MPEG-4 Visual
Format profile : AdvancedSimple@L5
Format settings, BVOP : Yes
Format settings, QPel : No
Format settings, GMC : No warppoints
Format settings, Matrix : Default (H.263)
Muxing mode : Packed bitstream
Codec ID : XVID
Codec ID/Hint : XviD
Duration : 2h 10mn
Bit rate : 1 406 Kbps
Width : 640 pixels
Height : 352 pixels
Display aspect ratio : 16:9
Frame rate : 29.970 fps
Resolution : 24 bits
Colorimetry : 4:2:0
Scan type : Progressive
Bits/(Pixel*Frame) : 0.208
Stream size : 1.28 GiB (91%)
Writing library : XviD 1.2.1 (UTC 2008-12-04)

Audio
ID : 1
Format : MPEG Audio
Format version : Version 1
Format profile : Layer 3
Codec ID : 55
Codec ID/Hint : MP3
Duration : 2h 10mn
Bit rate mode : Constant
Bit rate : 128 Kbps
Channel(s) : 2 channels
Sampling rate : 44.1 KHz
Resolution : 16 bits
Stream size : 120 MiB (8%)
Alignment : Split accross interleaves
Interleave, duration : 33 ms (1.00 video frame)
Interleave, preload duration : 500 ms

credit TA & to all the people who made it possible for us to share this...especially EVERYONE involve in the production of the movie...IF YOU LIKE IT...BUY IT :)

BIG BIG BIG GREETZ & THANKS:
ALL members & STAFFS of PIRATEBAY, EXTRATORRENT, KINGDOM, DEMONOID & AHASHARE :)
KaOsUSC, Motley Crue, InFeCtiouS, BADASS, W1ck3d1nt3ntz, ceo54, DaRkReAlM, ghostman, karakurachow, megaplay, Emery1337x, SaM, geordieboy1979, timamirrockdude, Noir, Shedevil, bone111, JorgeMontana, BlueLady, UniversalAbsurdity, mc68, TheFalcon007, pardeep333, X, DR67, DiNGiE, xclusive666, pro2kon, EMUworld, wrath, oziman, rubak1, BigPerm1828, skynetcentral, IZON, bluepeas, extremezone, Dibya9999, Treezluv2draw, pitic, FASAMOO, W1CK3D1NT3Z, GRIND3R & many more :)
ALL the awesome people who are SHARING (ALL THE UPLOADERS, THE RIPPERS, THE SCENE GROUPS, ETC, THE WHOLE P2P COMMUNITY, even the CRITICIZERS )
***wish i could list everyone***Thank you very much everyone & i mean EVERYONE :)

*****help what we can with others in need...the world is ONE big family*****

SCREENSHOTS
 
http://a.imageshack.us/img34/8657/2m6lso7.png
 
http://a.imageshack.us/img517/9972/11ux3yv.png
 
http://a.imageshack.us/img706/6798/2my69s3.png

DON'T THANK ME...HELP SOMEONE IN NEED :)

MAY YOU & YOUR LOVED ONES ALWAYS BE BLESSED WITH LIGHT, LOVE, JOY, PEACE, GOOD HEALTH & ABUNDANCE :)